<svg xmlns="http://www.w3.org/2000/svg" style="display: none;">
    <defs>
        <symbol id="arrow" fill="none">
            <path d="M1 9L5 5L1 1" stroke="currentColor"/>
        </symbol>
        <symbol id="search" fill="none">
            <path fill-rule="evenodd" clip-rule="evenodd" d="M7.59239 8.41382C6.16047 9.84574 3.83886 9.84574 2.40694 8.41382C0.975017 6.9819 0.975017 4.6603 2.40694 3.22837C3.83886 1.79645 6.16047 1.79645 7.59239 3.22837C9.02431 4.6603 9.02431 6.9819 7.59239 8.41382ZM8.03277 9.79678C6.07255 11.2962 3.25696 11.1495 1.46413 9.35663C-0.488491 7.40401 -0.488491 4.23819 1.46413 2.28556C3.41675 0.332943 6.58258 0.332943 8.5352 2.28556C10.3279 4.07831 10.4747 6.89373 8.97555 8.85394L12.5423 12.4206L11.5994 13.3635L8.03277 9.79678Z" fill="currentColor"/>
        </symbol>
        <symbol id="default-avatar" fill="none" >
            <path fill-rule="evenodd" clip-rule="evenodd" d="M36 2H4C2.89543 2 2 2.89543 2 4V25.2667L14.6547 22.3139C15.5486 22.1053 16.4635 22 17.3814 22H22.6186C23.5365 22 24.4514 22.1053 25.3453 22.3139L38 25.2667V4C38 2.89543 37.1046 2 36 2ZM4 0C1.79086 0 0 1.79086 0 4V36C0 38.2091 1.79086 40 4 40H36C38.2091 40 40 38.2091 40 36V4C40 1.79086 38.2091 0 36 0H4ZM10.9091 14.5455C12.9174 14.5455 14.5455 12.9174 14.5455 10.9091C14.5455 8.90079 12.9174 7.27273 10.9091 7.27273C8.90082 7.27273 7.27276 8.90079 7.27276 10.9091C7.27276 12.9174 8.90082 14.5455 10.9091 14.5455Z" fill="currentColor"/>
        </symbol>
        <symbol id="clip" fill="none">
            <path fill-rule="evenodd" clip-rule="evenodd" d="M6.18662 12.5L13.7628 4.92389L14.7056 5.8667L7.12943 13.4428L6.18662 12.5Z" fill="currentColor"/>
            <path fill-rule="evenodd" clip-rule="evenodd" d="M8.70067 15.0141L16.2768 7.43793L17.2196 8.38074L9.64348 15.9569L8.70067 15.0141Z" fill="currentColor"/>
            <path fill-rule="evenodd" clip-rule="evenodd" d="M14.0433 20.3567L21.6195 12.7806L22.5623 13.7234L14.9861 21.2995L14.0433 20.3567Z" fill="currentColor"/>
            <path fill-rule="evenodd" clip-rule="evenodd" d="M16.5574 22.8708L24.1335 15.2946L25.0763 16.2374L17.5002 23.8136L16.5574 22.8708Z" fill="currentColor"/>
            <path fill-rule="evenodd" clip-rule="evenodd" d="M16.5574 22.8709C13.9423 25.486 9.71181 25.4954 7.10831 22.8919C4.50482 20.2884 4.51424 16.0579 7.12936 13.4428L6.18655 12.5C3.0484 15.6381 3.0371 20.7148 6.16129 23.839C9.28549 26.9632 14.3621 26.9518 17.5003 23.8137L16.5574 22.8709Z" fill="currentColor"/>
            <path fill-rule="evenodd" clip-rule="evenodd" d="M21.6195 12.7806L22.5623 13.7234C25.003 11.2826 25.0118 7.3341 22.5819 4.90417C20.152 2.47424 16.2035 2.48303 13.7627 4.92381L14.7055 5.86662C16.6233 3.94887 19.7257 3.94196 21.6349 5.85119C23.5441 7.76042 23.5372 10.8628 21.6195 12.7806Z" fill="currentColor"/>
            <path fill-rule="evenodd" clip-rule="evenodd" d="M8.70092 15.0144C6.95751 16.7578 6.95123 19.5782 8.68689 21.3138C10.4226 23.0495 13.2429 23.0432 14.9863 21.2998L14.0435 20.357C12.8231 21.5774 10.8489 21.5818 9.63391 20.3668C8.41894 19.1518 8.42334 17.1776 9.64373 15.9572L8.70092 15.0144Z" fill="currentColor"/>
        </symbol>
        <symbol id="arrow-back" fill="none" viewBox="0 0 448 512">
            <path xmlns="http://www.w3.org/2000/svg" d="M438.6 278.6c12.5-12.5 12.5-32.8 0-45.3l-160-160c-12.5-12.5-32.8-12.5-45.3 0s-12.5 32.8 0 45.3L338.8 224 32 224c-17.7 0-32 14.3-32 32s14.3 32 32 32l306.7 0L233.4 393.4c-12.5 12.5-12.5 32.8 0 45.3s32.8 12.5 45.3 0l160-160z" fill="currentColor"/>
        </symbol>

        <symbol id="tree-dots">
            <circle cx="1.5" cy="2" r="1.5" fill="currentColor"/>
            <circle cx="1.5" cy="8" r="1.5" fill="currentColor"/>
            <circle cx="1.5" cy="14" r="1.5" fill="currentColor"/>
        </symbol>
        <symbol id="icon-close-modal" fill="none">
            <path fill-rule="evenodd" clip-rule="evenodd" d="M12.4714 3.52861C12.7318 3.78896 12.7318 4.21107 12.4714 4.47141L4.47141 12.4714C4.21107 12.7318 3.78896 12.7318 3.52861 12.4714C3.26826 12.2111 3.26826 11.789 3.52861 11.5286L11.5286 3.52861C11.789 3.26826 12.2111 3.26826 12.4714 3.52861Z" fill="currentColor"/>
            <path fill-rule="evenodd" clip-rule="evenodd" d="M3.52861 3.52861C3.78896 3.26826 4.21107 3.26826 4.47141 3.52861L12.4714 11.5286C12.7318 11.789 12.7318 12.2111 12.4714 12.4714C12.2111 12.7318 11.789 12.7318 11.5286 12.4714L3.52861 4.47141C3.26826 4.21107 3.26826 3.78896 3.52861 3.52861Z" fill="currentColor"/>
        </symbol>
        <symbol id="plus-icon" viewBox="0 0 448 512">
            <path d="M256 80c0-17.7-14.3-32-32-32s-32 14.3-32 32V224H48c-17.7 0-32 14.3-32 32s14.3 32 32 32H192V432c0 17.7 14.3 32 32 32s32-14.3 32-32V288H400c17.7 0 32-14.3 32-32s-14.3-32-32-32H256V80z" fill="currentColor"/>
        </symbol>


    </defs>
</svg>
