<svg xmlns="http://www.w3.org/2000/svg" style="display: none;">
    <defs>
        <svg id="arrow" fill="none">
            <path d="M1 9L5 5L1 1" stroke="currentColor"/>
        </svg>
        <svg id="search" fill="none">
            <path fill-rule="evenodd" clip-rule="evenodd" d="M7.59239 8.41382C6.16047 9.84574 3.83886 9.84574 2.40694 8.41382C0.975017 6.9819 0.975017 4.6603 2.40694 3.22837C3.83886 1.79645 6.16047 1.79645 7.59239 3.22837C9.02431 4.6603 9.02431 6.9819 7.59239 8.41382ZM8.03277 9.79678C6.07255 11.2962 3.25696 11.1495 1.46413 9.35663C-0.488491 7.40401 -0.488491 4.23819 1.46413 2.28556C3.41675 0.332943 6.58258 0.332943 8.5352 2.28556C10.3279 4.07831 10.4747 6.89373 8.97555 8.85394L12.5423 12.4206L11.5994 13.3635L8.03277 9.79678Z" fill="currentColor"/>
        </svg>
        <svg id="default-avatar" fill="none" >
            <path fill-rule="evenodd" clip-rule="evenodd" d="M36 2H4C2.89543 2 2 2.89543 2 4V25.2667L14.6547 22.3139C15.5486 22.1053 16.4635 22 17.3814 22H22.6186C23.5365 22 24.4514 22.1053 25.3453 22.3139L38 25.2667V4C38 2.89543 37.1046 2 36 2ZM4 0C1.79086 0 0 1.79086 0 4V36C0 38.2091 1.79086 40 4 40H36C38.2091 40 40 38.2091 40 36V4C40 1.79086 38.2091 0 36 0H4ZM10.9091 14.5455C12.9174 14.5455 14.5455 12.9174 14.5455 10.9091C14.5455 8.90079 12.9174 7.27273 10.9091 7.27273C8.90082 7.27273 7.27276 8.90079 7.27276 10.9091C7.27276 12.9174 8.90082 14.5455 10.9091 14.5455Z" fill="currentColor"/>
        </svg>
<!--        <svg id="default-avatar" width="66" height="66" viewBox="0 0 66 66">-->
<!--            <path d="M224 256c70.7 0 128-57.3 128-128S294.7 0 224 0S96 57.3 96 128s57.3 128 128 128zm-45.7 48C79.8 304 0 383.8 0 482.3C0 498.7 13.3 512 29.7 512H418.3c16.4 0 29.7-13.3 29.7-29.7C448 383.8 368.2 304 269.7 304H178.3z" fill="currentColor"/>-->
<!--        </svg>-->
    </defs>
</svg>
